# xmcd
#
# Track frame offsets: 
#        150
#        12493
#        25111
#        38788
#        51521
#        62836
#        75968
#        88883
#        100673
#        112946
#        125946
#        138573
#        152346
#        165798
#        179111
#        191603
#        204167
#        215611
#        227533
#        242678
#        255633
#        269871
#        282921
#        295586
#        308876
#        322411
#
# Disc length: 4471 seconds
#
# Revision: 1
# Processed by: cddbd v1.5.2PL0 Copyright (c) Steve Scherf et al.
# Submitted via: ExactAudioCopy v0.90b4
#
DISCID=7911751a
DTITLE=Calloway, Cab - Volume 2 1935-1940 [CD4]
DYEAR=2003
DGENRE=Big Band/Jazz
TTITLE0=Pluckin' The Bass 
TTITLE1=I Ain't Gettin' Nowhere Fast 
TTITLE2=Chili Con Conga 
TTITLE3=Tarazn Of Harlem 
TTITLE4=Jive Formation, Please 
TTITLE5=Vuelva 
TTITLE6=A Bee Gezindt
TTITLE7=Give, Baby, Give 
TTITLE8=Sincere Love 
TTITLE9=Pickin' The Cabbage 
TTITLE10=Do It Again 
TTITLE11=Chop, Chop, Charlie Chan 
TTITLE12=Paradiddle 
TTITLE13=Boog It 
TTITLE14=Calling All Bars 
TTITLE15=Do I Care, No No 
TTITLE16=The Lone Arranger
TTITLE17=Feelin' Tip Top 
TTITLE18=Topsy Turvy (Hard Times) 
TTITLE19=Hi-De-Ho Serenade 
TTITLE20=Who's Yehoodi? 
TTITLE21=Fifteen Minute Intermission 
TTITLE22=Rhapsody In Rhumba 
TTITLE23=Come On With The 'Come On' 
TTITLE24=Ghost Of A Chance, A 
TTITLE25=Bye Bye Blues 
EXTD=YEAR: 2003
EXTT0=
EXTT1=
EXTT2=
EXTT3=
EXTT4=
EXTT5=
EXTT6=
EXTT7=
EXTT8=
EXTT9=
EXTT10=
EXTT11=
EXTT12=
EXTT13=
EXTT14=
EXTT15=
EXTT16=
EXTT17=
EXTT18=
EXTT19=
EXTT20=
EXTT21=
EXTT22=
EXTT23=
EXTT24=
EXTT25=
PLAYORDER=
